<?xml version="1.0" standalone="no"?>
<!DOCTYPE svg PUBLIC "-//W3C//DTD SVG 20010904//EN"
 "http://www.w3.org/TR/2001/REC-SVG-20010904/DTD/svg10.dtd">
<svg version="1.0" xmlns="http://www.w3.org/2000/svg"
 width="512.000000pt" height="512.000000pt" viewBox="0 0 512.000000 512.000000"
 preserveAspectRatio="xMidYMid meet">

<g transform="translate(0.000000,512.000000) scale(0.100000,-0.100000)"
fill="#000000" stroke="none">
<path d="M2325 5109 c-502 -51 -966 -238 -1358 -546 -107 -83 -362 -344 -444
-453 -268 -359 -437 -765 -499 -1205 -25 -174 -25 -519 -1 -690 63 -436 236
-852 500 -1204 93 -123 285 -321 412 -426 777 -639 1859 -765 2754 -319 259
129 437 254 640 449 214 207 369 414 502 669 248 478 339 1020 259 1554 -61
418 -231 820 -491 1169 -94 125 -366 397 -490 490 -352 263 -748 430 -1172
494 -153 23 -473 33 -612 18z m412 -1285 c3 -9 -15 -82 -40 -162 -40 -125
-117 -404 -117 -423 0 -3 35 -12 78 -19 354 -57 596 -369 567 -730 -31 -380
-213 -734 -512 -996 -101 -88 -290 -216 -313 -212 -27 5 -22 46 19 171 23 67
59 192 81 277 43 169 43 170 -21 170 -52 0 -162 36 -244 78 -98 52 -208 163
-262 267 -62 120 -77 187 -76 340 2 458 262 895 712 1197 89 60 117 69 128 42z"/>
<path d="M2453 2916 c-104 -34 -185 -106 -232 -205 -22 -48 -26 -69 -26 -151
0 -87 3 -101 32 -161 39 -79 102 -140 181 -177 49 -23 70 -27 152 -27 82 0
103 4 152 27 79 37 142 98 181 177 29 60 32 74 32 161 0 87 -3 101 -32 161
-63 128 -176 200 -318 206 -49 2 -96 -3 -122 -11z m160 -167 c69 -19 128 -85
142 -160 20 -106 -83 -228 -193 -229 -100 0 -202 100 -202 200 0 75 62 159
136 185 48 17 68 18 117 4z"/>
</g>
</svg>
